<?xml version="1.0" standalone="no"?>
<!DOCTYPE svg PUBLIC "-//W3C//DTD SVG 20010904//EN"
 "http://www.w3.org/TR/2001/REC-SVG-20010904/DTD/svg10.dtd">
<svg version="1.0" xmlns="http://www.w3.org/2000/svg"
 width="512.000000pt" height="512.000000pt" viewBox="0 0 512.000000 512.000000"
 preserveAspectRatio="xMidYMid meet">

<g transform="translate(0.000000,512.000000) scale(0.100000,-0.100000)"
fill="#000000" stroke="none">
<path d="M4460 4402 c-107 -44 -345 -141 -527 -216 -183 -74 -339 -133 -345
-131 -12 4 -1464 302 -1760 361 -121 24 -130 25 -180 10 -125 -36 -192 -176
-139 -291 22 -49 65 -93 108 -111 27 -12 1753 -354 1783 -354 7 0 10 -460 10
-1280 0 -872 -3 -1280 -10 -1280 -6 0 -384 77 -840 170 -457 94 -845 170 -862
170 -80 0 -170 -69 -197 -149 -35 -105 22 -228 122 -266 70 -26 1936 -395
1999 -395 52 0 115 23 623 226 552 221 566 227 605 271 27 31 42 60 50 96 7
36 9 520 8 1567 l-3 1516 -26 49 c-33 64 -98 107 -172 112 -46 4 -73 -5 -247
-75z m20 -1715 l0 -1263 -307 -123 c-170 -68 -314 -125 -320 -128 -10 -4 -13
252 -13 1259 l0 1264 313 126 c171 69 315 127 320 127 4 1 7 -567 7 -1262z"/>
<path d="M800 4219 c-261 -105 -489 -202 -506 -215 -18 -13 -41 -43 -53 -67
l-21 -43 0 -1548 c0 -1726 -6 -1581 70 -1650 44 -40 108 -60 160 -52 19 2 214
76 432 163 l398 158 0 1723 c0 947 -1 1722 -2 1722 -2 -1 -217 -87 -478 -191z"/>
<path d="M2089 3500 c-101 -53 -146 -176 -100 -275 22 -49 65 -93 109 -112 45
-19 782 -153 842 -153 90 0 154 35 197 107 63 107 12 255 -103 301 -50 20
-794 152 -853 152 -35 -1 -70 -8 -92 -20z"/>
<path d="M2119 2836 c-59 -21 -96 -53 -123 -108 -42 -84 -32 -164 29 -235 20
-24 53 -48 78 -57 58 -22 786 -156 845 -156 137 0 243 131 212 261 -17 71 -77
135 -143 154 -64 18 -809 155 -840 155 -12 -1 -38 -7 -58 -14z"/>
<path d="M2094 2151 c-72 -33 -124 -117 -124 -202 0 -39 38 -126 66 -151 43
-38 126 -59 499 -128 413 -76 441 -78 515 -40 106 54 146 191 87 293 -30 51
-64 79 -117 95 -61 19 -799 152 -843 152 -23 0 -60 -9 -83 -19z"/>
</g>
</svg>
